<svg width="54" height="64" viewBox="0 0 54 64" fill="none" xmlns="http://www.w3.org/2000/svg">
<path fill-rule="evenodd" clip-rule="evenodd" d="M6.13844 39.0857C5.39442 40.391 5.17126 41.5959 5.56807 42.2737C5.96489 42.9515 7.08113 43.3782 8.56917 43.3531H23.3255V48.8006H8.56917C5.09706 48.8006 2.29436 47.4199 0.905515 44.9849C-0.483329 42.5498 -0.26017 39.4119 1.47588 36.3494L8.84195 23.4463L7.03154 22.392L13.678 20.3586L15.2404 27.1866L13.5045 26.1826L6.13844 39.0857ZM29.005 7.55593C28.261 6.25056 27.3434 5.47248 26.5746 5.47248C25.8057 5.47248 24.8879 6.25056 24.1438 7.55593L16.7532 20.5344L12.0907 17.7981L19.4813 4.81977C21.2173 1.75718 23.8217 0 26.5746 0C29.3274 0 31.9315 1.75718 33.6675 4.81977L41.0581 17.7981L36.3956 20.5344L29.005 7.55593ZM42.8189 16.794L41.2564 23.622L34.61 21.5887L42.8189 16.794ZM44.3069 23.4714L51.6729 36.3745C53.409 39.4371 53.6321 42.575 52.2433 45.0351C50.8545 47.4701 48.0766 48.8507 44.5796 48.8507H29.8233V50.9343L24.7639 46.1397L29.8233 41.3449V43.4033H44.5796C46.0677 43.4033 47.1839 42.9766 47.5807 42.2988C47.9776 41.5959 47.7544 40.416 47.0104 39.1106L39.6443 26.2077L44.3069 23.4714ZM25.9386 31.922C25.9386 33.7508 25.5601 35.1496 24.8032 36.1184C24.0463 37.0873 22.9381 37.5717 21.4788 37.5717C20.0376 37.5717 18.9355 37.0964 18.1726 36.1457C17.4096 35.195 17.019 33.8325 17.0009 32.0583V29.624C17.0009 27.7771 17.3823 26.3753 18.1453 25.4186C18.9143 24.4618 20.0195 23.9835 21.4606 23.9835C22.9018 23.9835 24.0039 24.4588 24.7669 25.4095C25.5298 26.3541 25.9204 27.7136 25.9386 29.4878V31.922ZM23.3136 29.2516C23.3136 28.1556 23.1622 27.3593 22.8594 26.8628C22.5627 26.3602 22.0964 26.1089 21.4606 26.1089C20.843 26.1089 20.3858 26.3481 20.0891 26.8265C19.7984 27.2988 19.644 28.0406 19.6259 29.0518V32.2672C19.6259 33.3451 19.7712 34.1474 20.0618 34.6742C20.3586 35.195 20.8309 35.4554 21.4788 35.4554C22.1207 35.4554 22.5839 35.2041 22.8685 34.7015C23.1531 34.1989 23.3015 33.4298 23.3136 32.3944V29.2516ZM36.7837 37.39H27.7189V35.5916L31.997 31.0319C32.5843 30.39 33.0173 29.8299 33.2958 29.3515C33.5804 28.8732 33.7227 28.419 33.7227 27.9891C33.7227 27.4017 33.5744 26.9415 33.2777 26.6085C32.981 26.2694 32.5571 26.0998 32.0061 26.0998C31.4126 26.0998 30.9433 26.3057 30.5982 26.7175C30.2591 27.1232 30.0895 27.6591 30.0895 28.3252H27.4554C27.4554 27.5198 27.6462 26.7841 28.0277 26.118C28.4152 25.4519 28.9602 24.9311 29.6626 24.5557C30.365 24.1742 31.1613 23.9835 32.0515 23.9835C33.4139 23.9835 34.4706 24.3104 35.2215 24.9644C35.9784 25.6184 36.3568 26.5419 36.3568 27.7348C36.3568 28.3887 36.1873 29.0548 35.8482 29.733C35.5091 30.4112 34.9278 31.2015 34.1042 32.1037L31.0977 35.2737H36.7837V37.39ZM18.0623 64H16.1159V59.9516H12.3205V64H10.3741V54.5536H12.3205V58.3815H16.1159V54.5536H18.0623V64ZM19.7686 64V54.5536H22.6752C23.5056 54.5536 24.2474 54.7418 24.9005 55.1181C25.558 55.4901 26.0705 56.0221 26.4382 56.7141C26.8058 57.4018 26.9896 58.1847 26.9896 59.0627V59.4974C26.9896 60.3755 26.808 61.1562 26.4447 61.8396C26.0857 62.5229 25.5774 63.0528 24.92 63.4291C24.2626 63.8054 23.5208 63.9957 22.6947 64H19.7686ZM21.715 56.1302V62.4364H22.6557C23.417 62.4364 23.9987 62.1877 24.401 61.6903C24.8032 61.1929 25.0087 60.4814 25.0173 59.5558V59.0562C25.0173 58.096 24.8184 57.3694 24.4204 56.8763C24.0225 56.3789 23.4408 56.1302 22.6752 56.1302H21.715ZM30.3569 64V60.6717H32.0632C33.1834 60.6717 34.0593 60.4057 34.6908 59.8737C35.3266 59.3374 35.6445 58.6064 35.6445 57.6808C35.6445 57.071 35.4996 56.5281 35.2098 56.0524C34.92 55.5723 34.5048 55.2024 33.9641 54.9429C33.4278 54.6834 32.805 54.5536 32.0956 54.5536H28.4105V64H30.3569ZM32.0956 59.0952H30.3569V56.1302H32.141C32.6211 56.1389 32.9974 56.2859 33.2699 56.5714C33.5424 56.8569 33.6787 57.231 33.6787 57.6938C33.6787 58.1436 33.5424 58.4896 33.2699 58.7319C33.0018 58.9741 32.6103 59.0952 32.0956 59.0952ZM42.6709 59.9062H38.9339V62.4364H43.3197V64H36.9875V54.5536H43.3067V56.1302H38.9339V58.3815H42.6709V59.9062Z" fill="black"/>
</svg>
