<svg width="54" height="65" viewBox="0 0 54 65" fill="none" xmlns="http://www.w3.org/2000/svg">
<path fill-rule="evenodd" clip-rule="evenodd" d="M5.92078 42.4286C5.52259 41.7545 5.74652 40.5563 6.49313 39.2581L13.8848 26.4258L15.6267 27.4243L14.0588 20.6338L7.38932 22.656L9.20602 23.7045L1.81438 36.5368C0.0723034 39.5826 -0.15163 42.7032 1.24203 45.1249C2.6357 47.5465 5.44814 48.9197 8.9323 48.9197H23.7399V43.5021H8.9323C7.43909 43.527 6.31897 43.1026 5.92078 42.4286ZM27.0002 5.82934C27.7717 5.82934 28.6925 6.60316 29.4391 7.90136L36.8553 20.8086L41.534 18.0873L34.1178 5.18022C32.3757 2.13444 29.7626 0.386902 27.0002 0.386902C24.2377 0.386902 21.6244 2.13444 19.8823 5.18022L12.466 18.0873L17.1448 20.8086L24.561 7.90136C25.3076 6.60316 26.2287 5.82934 27.0002 5.82934ZM41.733 23.8793L43.3009 17.0888L35.0635 21.8571L41.733 23.8793ZM52.1857 36.5618L44.7941 23.7295L40.1153 26.4508L47.507 39.2829C48.2536 40.5811 48.4775 41.7545 48.0793 42.4536C47.6811 43.1276 46.561 43.552 45.0678 43.552H30.2602V41.5049L25.1832 46.2733L30.2602 51.0417V48.9695H45.0678C48.5768 48.9695 51.3644 47.5965 52.758 45.1749C54.1517 42.7282 53.9278 39.6075 52.1857 36.5618ZM37.6667 33.0416V35.1015H36.1628V38H33.5378V35.1015H28.1055L27.9779 33.5065L33.5105 24.7291H33.5378H35.5977H36.1628V33.0416H37.6667ZM33.3373 28.5117L33.5378 28.1762V33.0416H30.5847L33.3373 28.5117ZM26.6445 32.4894V30.1925C26.6445 29.3965 26.5747 28.6917 26.4349 28.078C26.2951 27.4582 26.0946 26.9265 25.8333 26.4829C25.572 26.0333 25.2561 25.6656 24.8854 25.38C24.5148 25.0945 24.0985 24.8848 23.6367 24.7511C23.181 24.6114 22.6858 24.5415 22.151 24.5415C21.4826 24.5415 20.875 24.6509 20.3281 24.8696C19.7812 25.0823 19.3073 25.4165 18.9062 25.8722C18.5113 26.328 18.2044 26.9143 17.9857 27.6313C17.773 28.3423 17.6667 29.196 17.6667 30.1925V32.4894C17.6667 33.2915 17.7365 34.0024 17.8763 34.6222C18.0161 35.242 18.2166 35.7767 18.4779 36.2264C18.7452 36.67 19.0612 37.0376 19.4258 37.3293C19.7964 37.6209 20.2127 37.8366 20.6745 37.9764C21.1363 38.1101 21.6345 38.1769 22.1693 38.1769C22.8377 38.1769 23.4453 38.0675 23.9922 37.8488C24.5391 37.63 25.01 37.2928 25.4049 36.8371C25.806 36.3753 26.1128 35.7859 26.3255 35.0688C26.5382 34.3458 26.6445 33.486 26.6445 32.4894ZM24.0104 29.8371V32.8358C24.0104 33.4373 23.9709 33.9478 23.8919 34.367C23.8129 34.7863 23.6914 35.1266 23.5273 35.3879C23.3694 35.6431 23.1749 35.8314 22.944 35.953C22.7192 36.0684 22.4609 36.1261 22.1693 36.1261C21.9323 36.1261 21.7135 36.0897 21.513 36.0168C21.3186 35.9438 21.1454 35.8284 20.9935 35.6704C20.8477 35.5063 20.7201 35.2967 20.6107 35.0415C20.5074 34.7802 20.4284 34.4673 20.3737 34.1027C20.3251 33.7381 20.3008 33.3158 20.3008 32.8358V29.8371C20.3008 29.2416 20.3403 28.7373 20.4193 28.3241C20.5043 27.9048 20.6259 27.5706 20.7839 27.3215C20.9418 27.0662 21.1332 26.8809 21.3581 26.7655C21.589 26.65 21.8533 26.5923 22.151 26.5923C22.388 26.5923 22.6037 26.6287 22.7982 26.7017C22.9926 26.7746 23.1658 26.89 23.3177 27.048C23.4696 27.206 23.5972 27.4126 23.7005 27.6678C23.8038 27.9169 23.8798 28.2208 23.9284 28.5793C23.9831 28.9378 24.0104 29.357 24.0104 29.8371ZM41.8399 63.289V64.8125H37.4323H36.7943H35.4792V55.3333H36.7943H37.4323H41.8334V56.8633H37.4323V59.194H41.1823V60.6784H37.4323V63.289H41.8399ZM28.8386 61.4336H30.5769C31.3191 61.4336 31.9549 61.312 32.4844 61.069C33.0183 60.8259 33.4263 60.4809 33.7084 60.0338C33.9905 59.5868 34.1315 59.0573 34.1315 58.4453C34.1315 57.842 33.9905 57.306 33.7084 56.8372C33.4263 56.3685 33.0183 56.0017 32.4844 55.737C31.9549 55.4679 31.3191 55.3333 30.5769 55.3333H26.8855V64.8125H28.8386V61.4336ZM28.8386 59.9101H30.5769C30.9501 59.9101 31.2539 59.8494 31.4883 59.7278C31.7227 59.602 31.8941 59.4284 32.0026 59.207C32.1112 58.9857 32.1654 58.7361 32.1654 58.4583C32.1654 58.1762 32.1112 57.9136 32.0026 57.6706C31.8941 57.4275 31.7227 57.2322 31.4883 57.0846C31.2539 56.937 30.9501 56.8633 30.5769 56.8633H28.8386V59.9101ZM21.1237 64.8125H20.1667H19.0599H18.2136V55.3333H19.0209H20.1667H21.1433C21.7769 55.3333 22.3564 55.4418 22.8815 55.6588C23.4111 55.8715 23.869 56.1775 24.2552 56.5768C24.6415 56.9761 24.9388 57.4535 25.1472 58.0091C25.3598 58.5603 25.4662 59.1745 25.4662 59.8515V60.3008C25.4662 60.9735 25.3598 61.5877 25.1472 62.1432C24.9388 62.6988 24.6415 63.1762 24.2552 63.5755C23.8733 63.9705 23.4154 64.2765 22.8815 64.4935C22.352 64.7061 21.7661 64.8125 21.1237 64.8125ZM20.1667 63.289V56.8633H21.1433C21.5209 56.8633 21.8551 56.9284 22.1459 57.0586C22.4367 57.1844 22.6819 57.3732 22.8815 57.625C23.0812 57.8767 23.2309 58.187 23.3308 58.556C23.4349 58.9249 23.487 59.3524 23.487 59.8385V60.3008C23.487 60.9344 23.3959 61.4748 23.2136 61.9219C23.0356 62.3689 22.7709 62.7096 22.4193 62.944C22.0677 63.174 21.6359 63.289 21.1237 63.289H20.1667ZM17.0938 64.8125V63.289H12.9532V55.3333H11V64.8125H12.3217H12.9532H17.0938Z" fill="black"/>
</svg>
