<svg width="50" height="49" viewBox="0 0 50 49" fill="none" xmlns="http://www.w3.org/2000/svg">
<path d="M25.7138 0H25.1491C18.6852 0.0746947 12.5135 2.70812 7.98229 7.32505C3.45104 11.942 0.928384 18.1671 0.965679 24.6405C1.00297 31.114 3.5971 37.3095 8.18124 41.8738C12.7654 46.438 18.9669 49 25.4312 49C31.8956 49 38.0971 46.438 42.6812 41.8738C47.2654 37.3095 49.8595 31.114 49.8968 24.6405C49.9341 18.1671 47.4119 11.942 42.8807 7.32505C38.3494 2.70812 32.1777 0.0746947 25.7138 0ZM2.86606 25.5374H10.3941C10.4566 28.6468 10.9054 31.7363 11.7302 34.7346H5.25624C3.80707 31.8772 2.99171 28.7398 2.86606 25.5374ZM26.3534 12.5896V2.01656C30.6632 2.54427 34.4082 6.63406 36.5726 12.5896H26.3534ZM37.1938 14.4743C38.0462 17.4743 38.508 20.5719 38.5676 23.6904H26.3534V14.4743H37.1938ZM24.5091 2.03543V12.6085H14.2711C16.5483 6.53984 20.1993 2.45006 24.5091 1.92235V2.03543ZM24.5091 14.4743V23.6527H12.2949C12.3545 20.5342 12.8163 17.4365 13.6687 14.4366L24.5091 14.4743ZM10.4317 23.6904H2.90374C3.0232 20.4833 3.83205 17.3398 5.27508 14.4743H11.8056C10.9697 17.465 10.5083 20.5481 10.4317 23.6527V23.6904ZM12.3137 25.5751H24.5279V34.7723H13.6876C12.8255 31.7675 12.3573 28.6631 12.2949 25.5374L12.3137 25.5751ZM24.5279 36.6382V47.1923C20.2181 46.6835 16.4731 42.5938 14.3088 36.6382H24.5279ZM26.4099 47.1923V36.6382H36.6291C34.3895 42.4995 30.6632 46.5516 26.3534 47.0604L26.4099 47.1923ZM26.4099 34.7723V25.5374H38.6241C38.5645 28.6497 38.1028 31.7411 37.2503 34.7346L26.4099 34.7723ZM40.4873 25.5751H48.0153C47.8955 28.776 47.0866 31.9134 45.6439 34.7723H39.1323C39.9475 31.7602 40.3836 28.6578 40.4307 25.5374L40.4873 25.5751ZM40.4873 23.6904C40.4261 20.5747 39.9773 17.4788 39.1511 14.4743H45.6816C47.1246 17.3398 47.9335 20.4833 48.0529 23.6904H40.4873ZM44.6276 12.6085H38.5864C37.4577 9.03772 35.4665 5.80095 32.7897 3.18511C37.6567 4.86228 41.8107 8.14492 44.5711 12.4954L44.6276 12.6085ZM18.2795 3.18511C15.6027 5.80095 13.612 9.03772 12.4833 12.6085H6.44168C9.13492 8.19001 13.2607 4.83045 18.1293 3.09084L18.2795 3.18511ZM6.44168 36.6004H12.5021C13.6203 40.1805 15.6199 43.4211 18.3172 46.0238C13.3232 44.3523 9.06954 40.9857 6.29143 36.5062L6.44168 36.6004ZM32.7897 46.0238C35.4783 43.414 37.4768 40.1758 38.6053 36.6004H44.6653C41.8687 40.999 37.6405 44.2947 32.696 45.9296L32.7897 46.0238Z" fill="white"/>
</svg>
