<svg width="53" height="65" viewBox="0 0 53 65" fill="none" xmlns="http://www.w3.org/2000/svg">
<path fill-rule="evenodd" clip-rule="evenodd" d="M6.31351 39.2581C5.57857 40.5563 5.35813 41.7545 5.7501 42.4286C6.14207 43.1026 7.24468 43.527 8.71457 43.5021H23.2908V48.9197H8.71457C5.28484 48.9197 2.51635 47.5465 1.14446 45.1249C-0.227425 42.7032 -0.00699088 39.5826 1.70787 36.5368L8.98401 23.7045L7.1957 22.656L13.761 20.6338L15.3044 27.4243L13.5896 26.4258L6.31351 39.2581ZM28.9009 7.90136C28.166 6.60316 27.2596 5.82934 26.5001 5.82934C25.7407 5.82934 24.834 6.60316 24.0991 7.90136L16.7987 20.8086L12.1931 18.0873L19.4935 5.18022C21.2083 2.13444 23.7809 0.386902 26.5001 0.386902C29.2194 0.386902 31.7917 2.13444 33.5065 5.18022L40.8069 18.0873L36.2013 20.8086L28.9009 7.90136ZM42.5462 17.0888L41.0028 23.8793L34.4375 21.8571L42.5462 17.0888ZM44.016 23.7295L51.2921 36.5618C53.007 39.6075 53.2274 42.7282 51.8555 45.1749C50.4836 47.5965 47.7396 48.9695 44.2854 48.9695H29.7092V51.0417L24.7115 46.2733L29.7092 41.5049V43.552H44.2854C45.7553 43.552 46.8579 43.1276 47.2499 42.4536C47.6419 41.7545 47.4214 40.5811 46.6865 39.2829L39.4104 26.4508L44.016 23.7295ZM27.1998 32.1337C27.1998 33.9524 26.826 35.3435 26.0783 36.3071C25.3306 37.2706 24.236 37.7524 22.7945 37.7524C21.3709 37.7524 20.2823 37.2797 19.5286 36.3342C18.775 35.3887 18.3892 34.0337 18.3712 32.2692V29.8483C18.3712 28.0116 18.748 26.6175 19.5017 25.666C20.2614 24.7145 21.353 24.2387 22.7766 24.2387C24.2001 24.2387 25.2888 24.7115 26.0424 25.6569C26.7961 26.5964 27.1819 27.9484 27.1998 29.7128V32.1337ZM24.6069 29.478C24.6069 28.388 24.4573 27.5961 24.1583 27.1023C23.8652 26.6024 23.4046 26.3525 22.7766 26.3525C22.1664 26.3525 21.7148 26.5904 21.4218 27.0661C21.1346 27.5358 20.9821 28.2736 20.9642 29.2793V32.477C20.9642 33.5489 21.1077 34.3469 21.3948 34.8708C21.6879 35.3887 22.1545 35.6477 22.7945 35.6477C23.4285 35.6477 23.8861 35.3977 24.1672 34.8979C24.4484 34.3981 24.5949 33.6333 24.6069 32.6035V29.478ZM35.2568 37.5717H32.6639V27.5087L29.5685 28.4753V26.3525L34.9787 24.4013H35.2568V37.5717ZM17.201 64.0357V60.7257H18.8865C19.993 60.7257 20.8582 60.4611 21.482 59.9321C22.11 59.3987 22.4241 58.6717 22.4241 57.7512C22.4241 57.1447 22.2809 56.6048 21.9947 56.1317C21.7084 55.6542 21.2983 55.2864 20.7642 55.0283C20.2344 54.7702 19.6192 54.6412 18.9185 54.6412H15.2784V64.0357H17.201ZM18.9185 59.1578H17.201V56.2091H18.9634C19.4376 56.2177 19.8093 56.3639 20.0785 56.6478C20.3477 56.9317 20.4822 57.3038 20.4822 57.7641C20.4822 58.2115 20.3477 58.5556 20.0785 58.7965C19.8136 59.0373 19.4269 59.1578 18.9185 59.1578ZM25.6733 59.9643H29.3647V58.448H25.6733V56.2091H29.9927V54.6412H23.7507V64.0357H30.0056V62.4807H25.6733V59.9643ZM38.2856 56.2091H35.4273V64.0357H33.5047V56.2091H30.6849V54.6412H38.2856V56.2091Z" fill="black"/>
</svg>
