<svg width="54" height="65" viewBox="0 0 54 65" fill="none" xmlns="http://www.w3.org/2000/svg">
<path fill-rule="evenodd" clip-rule="evenodd" d="M6.49313 38.8712C5.74652 40.1694 5.52259 41.3676 5.92078 42.0417C6.31897 42.7157 7.43909 43.1401 8.9323 43.1152H23.7399V48.5328H8.9323C5.44814 48.5328 2.6357 47.1596 1.24203 44.738C-0.15163 42.3163 0.0723034 39.1957 1.81438 36.1499L9.20602 23.3176L7.38932 22.2691L14.0588 20.2469L15.6267 27.0374L13.8848 26.0389L6.49313 38.8712ZM29.4391 7.51446C28.6925 6.21626 27.7717 5.44244 27.0002 5.44244C26.2287 5.44244 25.3076 6.21626 24.561 7.51446L17.1448 20.4217L12.466 17.7004L19.8823 4.79332C21.6244 1.74754 24.2377 0 27.0002 0C29.7626 0 32.3757 1.74754 34.1178 4.79332L41.534 17.7004L36.8553 20.4217L29.4391 7.51446ZM43.3009 16.7019L41.733 23.4924L35.0635 21.4702L43.3009 16.7019ZM44.7941 23.3426L52.1857 36.1749C53.9278 39.2206 54.1517 42.3413 52.758 44.788C51.3644 47.2096 48.5768 48.5826 45.0678 48.5826H30.2602V50.6548L25.1832 45.8864L30.2602 41.118V43.1651H45.0678C46.561 43.1651 47.6811 42.7407 48.0793 42.0667C48.4775 41.3676 48.2536 40.1942 47.507 38.896L40.1153 26.0639L44.7941 23.3426ZM28.5543 31.2796L30.6319 31.7764C30.8066 31.5837 31.0234 31.4121 31.2823 31.2615C31.5473 31.111 31.9207 31.0357 32.4024 31.0357C32.7577 31.0357 33.0679 31.0929 33.3328 31.2073C33.6038 31.3218 33.8267 31.4844 34.0013 31.6951C34.1759 31.9059 34.3054 32.1558 34.3897 32.4449C34.474 32.7339 34.5162 33.0561 34.5162 33.4114C34.5162 33.7667 34.4801 34.098 34.4078 34.4051C34.3416 34.7062 34.2362 34.9712 34.0916 35.2C33.9471 35.4228 33.7574 35.5975 33.5225 35.7239C33.2877 35.8504 33.0046 35.9136 32.6734 35.9136C32.3181 35.9136 32.008 35.8414 31.743 35.6968C31.478 35.5523 31.2642 35.3476 31.1016 35.0826C30.9451 34.8116 30.8487 34.4894 30.8126 34.116H28.2291C28.2411 34.7243 28.3706 35.2663 28.6175 35.742C28.8704 36.2117 29.2047 36.6122 29.6202 36.9434C30.0417 37.2746 30.5145 37.5246 31.0384 37.6932C31.5684 37.8618 32.1164 37.9461 32.6825 37.9461C33.4412 37.9461 34.0977 37.8287 34.6517 37.5938C35.2057 37.3589 35.6664 37.0368 36.0338 36.6273C36.4011 36.2117 36.6751 35.742 36.8558 35.2181C37.0365 34.6881 37.1268 34.1311 37.1268 33.5469C37.1268 32.8544 37.0365 32.2341 36.8558 31.6861C36.6751 31.1381 36.4102 30.6744 36.0609 30.295C35.7176 29.9156 35.2991 29.6265 34.8053 29.4278C34.3114 29.2291 33.7454 29.1297 33.107 29.1297C32.6674 29.1297 32.2699 29.1899 31.9146 29.3104C31.5593 29.4248 31.2944 29.5332 31.1197 29.6356L31.4449 26.7178H36.6932V24.6131H29.304L28.5543 31.2796ZM26.4349 29.8056V32.1025C26.4349 33.099 26.3286 33.9589 26.1159 34.6819C25.9032 35.399 25.5964 35.9884 25.1953 36.4502C24.8003 36.9059 24.3294 37.2431 23.7826 37.4619C23.2357 37.6806 22.628 37.79 21.9596 37.79C21.4249 37.79 20.9266 37.7232 20.4648 37.5895C20.003 37.4497 19.5868 37.234 19.2161 36.9424C18.8516 36.6507 18.5356 36.2831 18.2682 35.8395C18.0069 35.3898 17.8064 34.8551 17.6667 34.2353C17.5269 33.6155 17.457 32.9046 17.457 32.1025V29.8056C17.457 28.8091 17.5634 27.9554 17.776 27.2444C17.9948 26.5274 18.3016 25.9411 18.6966 25.4853C19.0977 25.0296 19.5716 24.6954 20.1185 24.4827C20.6654 24.264 21.273 24.1546 21.9414 24.1546C22.4761 24.1546 22.9714 24.2245 23.4271 24.3642C23.8889 24.4979 24.3051 24.7076 24.6758 24.9931C25.0464 25.2787 25.3624 25.6464 25.6237 26.096C25.885 26.5396 26.0855 27.0713 26.2253 27.6911C26.365 28.3048 26.4349 29.0096 26.4349 29.8056ZM23.8008 32.4489V29.4502C23.8008 28.9701 23.7734 28.5509 23.7187 28.1924C23.6701 27.8339 23.5942 27.53 23.4909 27.2809C23.3876 27.0257 23.26 26.8191 23.1081 26.6611C22.9562 26.5031 22.783 26.3877 22.5885 26.3148C22.3941 26.2418 22.1784 26.2054 21.9414 26.2054C21.6437 26.2054 21.3793 26.2631 21.1484 26.3786C20.9236 26.494 20.7322 26.6793 20.5742 26.9345C20.4162 27.1837 20.2947 27.5179 20.2096 27.9372C20.1306 28.3503 20.0911 28.8547 20.0911 29.4502V32.4489C20.0911 32.9289 20.1154 33.3512 20.1641 33.7158C20.2187 34.0804 20.2977 34.3933 20.401 34.6546C20.5104 34.9098 20.638 35.1194 20.7839 35.2835C20.9358 35.4415 21.1089 35.5569 21.3034 35.6299C21.5039 35.7028 21.7227 35.7392 21.9596 35.7392C22.2513 35.7392 22.5095 35.6815 22.7344 35.5661C22.9653 35.4445 23.1597 35.2562 23.3177 35.001C23.4818 34.7397 23.6033 34.3994 23.6823 33.9801C23.7613 33.5609 23.8008 33.0504 23.8008 32.4489ZM20.2071 61.0467H21.9454C22.6875 61.0467 23.3234 60.9251 23.8529 60.6821C24.3868 60.439 24.7947 60.094 25.0769 59.6469C25.359 59.1999 25.5 58.6704 25.5 58.0584C25.5 57.4551 25.359 56.9191 25.0769 56.4503C24.7947 55.9816 24.3868 55.6148 23.8529 55.3501C23.3234 55.081 22.6875 54.9464 21.9454 54.9464H18.2539V64.4256H20.2071V61.0467ZM20.2071 59.5232V56.4764H21.9454C22.3186 56.4764 22.6224 56.5501 22.8568 56.6977C23.0912 56.8453 23.2626 57.0406 23.3711 57.2836C23.4796 57.5267 23.5339 57.7893 23.5339 58.0714C23.5339 58.3492 23.4796 58.5988 23.3711 58.8201C23.2626 59.0415 23.0912 59.2151 22.8568 59.3409C22.6224 59.4625 22.3186 59.5232 21.9454 59.5232H20.2071ZM28.8386 61.0467H30.5769C31.319 61.0467 31.9549 60.9251 32.4844 60.6821C33.0183 60.439 33.4262 60.094 33.7084 59.6469C33.9905 59.1999 34.1315 58.6704 34.1315 58.0584C34.1315 57.4551 33.9905 56.9191 33.7084 56.4503C33.4262 55.9816 33.0183 55.6148 32.4844 55.3501C31.9549 55.081 31.319 54.9464 30.5769 54.9464H26.8854V64.4256H28.8386V61.0467ZM28.8386 59.5232V56.4764H30.5769C30.9501 56.4764 31.2539 56.5501 31.4883 56.6977C31.7227 56.8453 31.8941 57.0406 32.0026 57.2836C32.1111 57.5267 32.1654 57.7893 32.1654 58.0714C32.1654 58.3492 32.1111 58.5988 32.0026 58.8201C31.8941 59.0415 31.7227 59.2151 31.4883 59.3409C31.2539 59.4625 30.9501 59.5232 30.5769 59.5232H28.8386Z" fill="black"/>
</svg>
